<svg xmlns="http://www.w3.org/2000/svg">
  <symbol id="github" viewBox="0 0 32 32">
    <title>GitHub</title>
    <path d="M15.999 0C7.164 0 0 7.345 0 16.405c0 7.248 4.584 13.397 10.942 15.566.8.151 1.092-.356 1.092-.79 0-.39-.013-1.422-.021-2.79-4.45.99-5.39-2.2-5.39-2.2-.728-1.895-1.777-2.4-1.777-2.4-1.452-1.017.11-.997.11-.997 1.606.116 2.451 1.691 2.451 1.691 1.427 2.507 3.745 1.783 4.657 1.363.145-1.06.559-1.783 1.015-2.193-3.552-.413-7.288-1.821-7.288-8.108 0-1.79.624-3.256 1.647-4.402-.165-.415-.714-2.083.158-4.341 0 0 1.342-.441 4.399 1.682A14.97 14.97 0 0 1 16 7.933c1.36.007 2.728.188 4.006.553 3.055-2.123 4.395-1.682 4.395-1.682.874 2.258.325 3.926.16 4.341 1.026 1.146 1.645 2.612 1.645 4.402 0 6.303-3.741 7.69-7.305 8.095.574.507 1.085 1.508 1.085 3.039 0 2.192-.02 3.962-.02 4.5 0 .438.29.949 1.1.789C27.42 29.796 32 23.65 32 16.405 32 7.345 24.836 0 15.999 0"/>
  </symbol>

  <symbol id="stack-overflow" viewBox="0 0 32 32">
    <title>Stack Overflow</title>
    <path d="M24.69 29.018v-8.436h2.8v11.236H2.219V20.582h2.8v8.436z"/>
    <path d="M8.11 19.782l13.745 2.873.581-2.764-13.745-2.873-.582 2.764zm1.817-6.546l12.728 5.928 1.163-2.546-12.727-5.963-1.164 2.581zm3.528-6.254l10.8 8.982 1.781-2.146-10.8-8.982-1.781 2.146zM20.436.327L18.182 2l8.363 11.273L28.8 11.6 20.436.327zM7.818 26.182h14.037v-2.8H7.818v2.8z"/>
  </symbol>

  <symbol id="twitter" viewBox="0 0 32 32">
    <title>Twitter</title>
    <path d="M10.063 29.002c12.076 0 18.68-10.005 18.68-18.68 0-.285 0-.567-.019-.85A13.358 13.358 0 0 0 32 6.076c-1.198.53-2.47.879-3.77 1.032a6.588 6.588 0 0 0 2.886-3.63 13.157 13.157 0 0 1-4.17 1.593 6.572 6.572 0 0 0-11.188 5.988 18.64 18.64 0 0 1-13.53-6.86 6.57 6.57 0 0 0 2.032 8.764 6.516 6.516 0 0 1-2.98-.822v.084a6.568 6.568 0 0 0 5.267 6.435 6.555 6.555 0 0 1-2.964.113 6.573 6.573 0 0 0 6.133 4.56A13.174 13.174 0 0 1 0 26.051a18.587 18.587 0 0 0 10.063 2.945"/>
  </symbol>
</svg>
